<svg width="26" height="26" viewBox="0 0 26 26" fill="none" xmlns="http://www.w3.org/2000/svg">
<mask id="mask0_27_2131" style="mask-type:alpha" maskUnits="userSpaceOnUse" x="0" y="0" width="26" height="26">
<rect x="0.261719" y="0.029541" width="25" height="25" fill="#D9D9D9"/>
</mask>
<g mask="url(#mask0_27_2131)">
<path d="M9.01139 17.7378L12.7614 13.9878L16.5114 17.7378L17.9697 16.2795L14.2197 12.5295L17.9697 8.77946L16.5114 7.32113L12.7614 11.0711L9.01139 7.32113L7.55306 8.77946L11.3031 12.5295L7.55306 16.2795L9.01139 17.7378ZM12.7614 22.9461C11.3204 22.9461 9.96625 22.6727 8.69889 22.1258C7.43153 21.5789 6.3291 20.8368 5.3916 19.8993C4.4541 18.9618 3.71191 17.8593 3.16504 16.592C2.61816 15.3246 2.34473 13.9704 2.34473 12.5295C2.34473 11.0885 2.61816 9.73432 3.16504 8.46696C3.71191 7.1996 4.4541 6.09717 5.3916 5.15967C6.3291 4.22217 7.43153 3.47998 8.69889 2.93311C9.96625 2.38623 11.3204 2.11279 12.7614 2.11279C14.2024 2.11279 15.5565 2.38623 16.8239 2.93311C18.0913 3.47998 19.1937 4.22217 20.1312 5.15967C21.0687 6.09717 21.8109 7.1996 22.3577 8.46696C22.9046 9.73432 23.1781 11.0885 23.1781 12.5295C23.1781 13.9704 22.9046 15.3246 22.3577 16.592C21.8109 17.8593 21.0687 18.9618 20.1312 19.8993C19.1937 20.8368 18.0913 21.5789 16.8239 22.1258C15.5565 22.6727 14.2024 22.9461 12.7614 22.9461ZM12.7614 20.8628C15.0878 20.8628 17.0583 20.0555 18.6729 18.4409C20.2874 16.8263 21.0947 14.8558 21.0947 12.5295C21.0947 10.2031 20.2874 8.23259 18.6729 6.618C17.0583 5.00342 15.0878 4.19613 12.7614 4.19613C10.435 4.19613 8.46452 5.00342 6.84994 6.618C5.23535 8.23259 4.42806 10.2031 4.42806 12.5295C4.42806 14.8558 5.23535 16.8263 6.84994 18.4409C8.46452 20.0555 10.435 20.8628 12.7614 20.8628Z" fill="#F28093"/>
</g>
</svg>
