<svg width="40" height="40" viewBox="0 0 40 40" fill="none" xmlns="http://www.w3.org/2000/svg">
<mask id="mask0_26_2013" style="mask-type:alpha" maskUnits="userSpaceOnUse" x="0" y="0" width="40" height="40">
<rect width="40" height="40" fill="#D9D9D9"/>
</mask>
<g mask="url(#mask0_26_2013)">
<path d="M11.1392 35C10.3753 35 9.72138 34.728 9.17741 34.184C8.63344 33.6401 8.36145 32.9861 8.36145 32.2222V9.16663H6.66699V6.38888H14.667V5H25.3337V6.38888H33.3337V9.16663H31.6392V32.2222C31.6392 32.9722 31.3637 33.6227 30.8128 34.1736C30.2619 34.7245 29.6115 35 28.8615 35H11.1392ZM28.8615 9.16663H11.1392V32.2222H28.8615V9.16663ZM15.1948 28.7222H17.9725V12.6389H15.1948V28.7222ZM22.0281 28.7222H24.8059V12.6389H22.0281V28.7222Z" fill="#1C1B1F"/>
</g>
</svg>
