<svg width="41" height="41" viewBox="0 0 41 41" fill="none" xmlns="http://www.w3.org/2000/svg">
<mask id="mask0_27_2019" style="mask-type:alpha" maskUnits="userSpaceOnUse" x="0" y="0" width="41" height="41">
<rect x="0.171875" y="0.473633" width="40" height="40" fill="#D9D9D9"/>
</mask>
<g mask="url(#mask0_27_2019)">
<path d="M8.50521 32.1402H10.8385L25.2135 17.7652L22.8802 15.4319L8.50521 29.8069V32.1402ZM32.3385 15.3486L25.2552 8.34855L27.5885 6.01522C28.2274 5.37633 29.0122 5.05688 29.9427 5.05688C30.8733 5.05688 31.658 5.37633 32.2969 6.01522L34.6302 8.34855C35.2691 8.98744 35.6024 9.75827 35.6302 10.6611C35.658 11.5638 35.3524 12.3347 34.7135 12.9736L32.3385 15.3486ZM29.9219 17.8069L12.2552 35.4736H5.17188V28.3902L22.8385 10.7236L29.9219 17.8069Z" fill="#1C1B1F"/>
</g>
</svg>
