<svg width="71" height="71" viewBox="0 0 71 71" fill="none" xmlns="http://www.w3.org/2000/svg">
<mask id="mask0_27_2031" style="mask-type:alpha" maskUnits="userSpaceOnUse" x="0" y="0" width="71" height="71">
<rect x="0.614258" y="0.254639" width="70" height="70" fill="#D9D9D9"/>
</mask>
<g mask="url(#mask0_27_2031)">
<path d="M25.4046 35.2543C27.4463 35.2543 29.1477 34.513 30.5088 33.0304C31.8699 31.5477 32.8178 29.7856 33.3525 27.7439L29.1234 26.7231C28.8803 27.7925 28.455 28.7526 27.8473 29.6033C27.2397 30.454 26.4255 30.8793 25.4046 30.8793C24.3838 30.8793 23.5696 30.454 22.9619 29.6033C22.3543 28.7526 21.9289 27.7925 21.6859 26.7231L17.4567 27.7439C17.9914 29.7856 18.9393 31.5477 20.3005 33.0304C21.6616 34.513 23.363 35.2543 25.4046 35.2543ZM35.613 51.296C37.5088 51.296 39.3317 50.8706 41.0817 50.0199C42.8317 49.1692 44.4602 47.8932 45.9671 46.1918L42.7588 43.2751C41.6893 44.4418 40.547 45.329 39.3317 45.9366C38.1164 46.5442 36.8768 46.8481 35.613 46.8481C34.3491 46.8481 33.1095 46.5442 31.8942 45.9366C30.6789 45.329 29.5366 44.4418 28.4671 43.2751L25.2588 46.1918C26.8143 47.8932 28.455 49.1692 30.1807 50.0199C31.9064 50.8706 33.7171 51.296 35.613 51.296ZM45.8213 35.2543C47.863 35.2543 49.5644 34.513 50.9255 33.0304C52.2866 31.5477 53.2345 29.7856 53.7692 27.7439L49.54 26.7231C49.297 27.7925 48.8716 28.7526 48.264 29.6033C47.6564 30.454 46.8421 30.8793 45.8213 30.8793C44.8005 30.8793 43.9862 30.454 43.3786 29.6033C42.7709 28.7526 42.3456 27.7925 42.1025 26.7231L37.8734 27.7439C38.4081 29.7856 39.356 31.5477 40.7171 33.0304C42.0782 34.513 43.7796 35.2543 45.8213 35.2543ZM35.613 64.421C31.5782 64.421 27.7866 63.6554 24.238 62.1241C20.6893 60.5929 17.6025 58.5147 14.9775 55.8897C12.3525 53.2647 10.2744 50.1779 8.74316 46.6293C7.21191 43.0807 6.44629 39.289 6.44629 35.2543C6.44629 31.2196 7.21191 27.4279 8.74316 23.8793C10.2744 20.3307 12.3525 17.2439 14.9775 14.6189C17.6025 11.9939 20.6893 9.91577 24.238 8.38452C27.7866 6.85327 31.5782 6.08765 35.613 6.08765C39.6477 6.08765 43.4393 6.85327 46.988 8.38452C50.5366 9.91577 53.6234 11.9939 56.2484 14.6189C58.8734 17.2439 60.9515 20.3307 62.4828 23.8793C64.014 27.4279 64.7796 31.2196 64.7796 35.2543C64.7796 39.289 64.014 43.0807 62.4828 46.6293C60.9515 50.1779 58.8734 53.2647 56.2484 55.8897C53.6234 58.5147 50.5366 60.5929 46.988 62.1241C43.4393 63.6554 39.6477 64.421 35.613 64.421ZM35.613 59.5599C42.3982 59.5599 48.1455 57.2053 52.8548 52.4961C57.564 47.7869 59.9186 42.0396 59.9186 35.2543C59.9186 28.469 57.564 22.7218 52.8548 18.0125C48.1455 13.3033 42.3982 10.9487 35.613 10.9487C28.8277 10.9487 23.0804 13.3033 18.3712 18.0125C13.662 22.7218 11.3074 28.469 11.3074 35.2543C11.3074 42.0396 13.662 47.7869 18.3712 52.4961C23.0804 57.2053 28.8277 59.5599 35.613 59.5599Z" fill="#AC92FA"/>
</g>
</svg>
